<svg xmlns="http://www.w3.org/2000/svg" xmlns:xlink="http://www.w3.org/1999/xlink" viewBox="0 0 64 64"><defs><style>.cls-1{fill:url(#linear-gradient);}.cls-2{fill:url(#linear-gradient-2);}.cls-3{fill:url(#linear-gradient-3);}.cls-4{fill:url(#linear-gradient-4);}.cls-5{fill:url(#linear-gradient-5);}.cls-6{fill:url(#linear-gradient-6);}.cls-7{fill:url(#linear-gradient-7);}.cls-8{opacity:0.48;}</style><linearGradient id="linear-gradient" x1="17.14" y1="34.13" x2="39.56" y2="34.13" gradientUnits="userSpaceOnUse"><stop offset="0" stop-color="#d7d8d2"/><stop offset="0.07" stop-color="#d0d1cb"/><stop offset="0.7" stop-color="#99988d"/><stop offset="1" stop-color="#848275"/></linearGradient><linearGradient id="linear-gradient-2" x1="34.14" y1="15.67" x2="59.48" y2="15.67" gradientTransform="translate(24.79 -28.51) rotate(45)" gradientUnits="userSpaceOnUse"><stop offset="0" stop-color="#edd06d"/><stop offset="0.35" stop-color="#e0b858"/><stop offset="1" stop-color="#c2822a"/></linearGradient><linearGradient id="linear-gradient-3" x1="4.53" y1="42.8" x2="30.81" y2="42.8" gradientUnits="userSpaceOnUse"><stop offset="0" stop-color="#54595d"/><stop offset="0.39" stop-color="#646664"/><stop offset="1" stop-color="#79766d"/></linearGradient><linearGradient id="linear-gradient-4" x1="4.8" y1="60" x2="18.56" y2="60" xlink:href="#linear-gradient"/><linearGradient id="linear-gradient-5" x1="27.77" y1="60" x2="44.7" y2="60" xlink:href="#linear-gradient"/><linearGradient id="linear-gradient-6" x1="30.57" y1="50.84" x2="36.88" y2="50.84" xlink:href="#linear-gradient"/><linearGradient id="linear-gradient-7" x1="37.48" y1="44.98" x2="42.15" y2="44.98" xlink:href="#linear-gradient"/></defs><g id="Layer_48" data-name="Layer 48"><path class="cls-1" d="M39.27,25.83l-2.63-2.62a1,1,0,0,0-1.41,0L17.43,41a1,1,0,0,0,0,1.42l2.62,2.62a1,1,0,0,0,1.42,0l17.8-17.8A1,1,0,0,0,39.27,25.83Z"/><rect class="cls-2" x="32.29" y="10.41" width="29.04" height="10.52" rx="3.17" transform="translate(2.63 37.69) rotate(-45)"/><path class="cls-3" d="M30.52,52.69l-4.37-4.37a1,1,0,0,0-1.42,0L24,49l-.63-.63.7-.7a1,1,0,0,0,0-1.41l-8.16-8.17a1,1,0,0,0-.27-.18C12.09,34.28,11,29.17,13.8,26.42a1,1,0,0,0-1.07-1.67c-4.63,2.72-7.51,6.76-8.1,11.38-.44,3.75.59,7.63,3.11,9.73a1,1,0,0,0,.18.27l8.16,8.17a1,1,0,0,0,1.41,0l.7-.7.63.63-.69.7a1,1,0,0,0,0,1.41l4.36,4.37a1,1,0,0,0,1.42,0l6.61-6.61A1,1,0,0,0,30.52,52.69Z"/><path class="cls-4" d="M17.58,59H5.78a1,1,0,0,0,0,2h11.8A1,1,0,0,0,17.58,59Z"/><path class="cls-5" d="M43.72,59h-15a1,1,0,0,0,0,2h15A1,1,0,0,0,43.72,59Z"/><path class="cls-6" d="M31.57,57.22a1,1,0,0,0,.81-.41L36.68,51a1,1,0,0,0-.8-1.6H33.6L35.75,46a1,1,0,0,0-1.68-1.08l-3.14,4.92a1,1,0,0,0,.84,1.53H33.9l-3.13,4.26A1,1,0,0,0,31.57,57.22Z"/><path class="cls-7" d="M37.89,49.11a1,1,0,0,0,1.4-.21L42,45.28a1,1,0,0,0-.8-1.59h-.72l1-1.51a1,1,0,0,0-1.68-1.07l-2,3a1,1,0,0,0,.85,1.54h.56l-1.49,2A1,1,0,0,0,37.89,49.11Z"/><g class="cls-8"><path d="M58.55,6.88,55.6,3.93a3.17,3.17,0,0,0-4.49,0l-16,16a3.17,3.17,0,0,0-.47,3.87L18.13,40.31c-.11-.09-2.38-2.47-2.46-2.38C12.09,34.28,11,29.17,13.8,26.42a1,1,0,0,0-1.07-1.67c-4.63,2.72-7.51,6.76-8.1,11.38-.44,3.75.59,7.63,3.11,9.73a1,1,0,0,0,.18.27l8.16,8.17a1,1,0,0,0,1.41,0l.7-.7.63.63-.69.7a1,1,0,0,0,0,1.41l4.36,4.37a1,1,0,0,0,1.42,0l6.61-6.61a1,1,0,0,0,0-1.41l-4.37-4.37a1,1,0,0,0-1.42,0L24,49l-.63-.63c.32-.36,1.05-.86,1-1.41a.93.93,0,0,0-.29-.7l-1.93-1.93L38.64,27.88a3.15,3.15,0,0,0,3.87-.47l16-16A3.16,3.16,0,0,0,58.55,6.88ZM28.39,53.4,23.2,58.59l-2.95-3,.7-.7a1,1,0,0,0,0-1.41l-2.05-2a1,1,0,0,0-1.41,0l-.7.7L9.33,44.72a1,1,0,0,0-.27-.18c-4-4-3-11.54,1.28-15.44a11.72,11.72,0,0,0,4,10.16.91.91,0,0,0,.18.27L22,47l-.7.7a1,1,0,0,0,0,1.42l2,2a1,1,0,0,0,1.41,0l.7-.7ZM20.76,42.93l-1.21-1.21L35.94,25.33l1.21,1.21ZM57.14,10,41.09,26a1.21,1.21,0,0,1-1.82-.17l-2.63-2.62a1.22,1.22,0,0,1-.16-1.82l16.05-16a1.18,1.18,0,0,1,1.66,0l3,2.95A1.17,1.17,0,0,1,57.14,10Z"/><path d="M17.58,59H5.78a1,1,0,0,0,0,2h11.8A1,1,0,0,0,17.58,59Z"/><path d="M43.72,59h-15a1,1,0,0,0,0,2h15A1,1,0,0,0,43.72,59Z"/><path d="M31,57a1,1,0,0,0,1.4-.21L36.68,51a1,1,0,0,0-.8-1.6H33.6L35.75,46a1,1,0,0,0-1.68-1.08l-3.14,4.92a1,1,0,0,0,.84,1.53H33.9l-3.13,4.26A1,1,0,0,0,31,57Z"/><path d="M37.89,49.11a1,1,0,0,0,1.4-.21L42,45.28a1,1,0,0,0-.8-1.59h-.72l1-1.51a1,1,0,0,0-1.68-1.07l-2,3a1,1,0,0,0,.85,1.54h.56l-1.49,2A1,1,0,0,0,37.89,49.11Z"/></g></g></svg>